<svg xmlns="http://www.w3.org/2000/svg" xmlns:cc="http://creativecommons.org/ns#" xmlns:dc="http://purl.org/dc/elements/1.1/" xmlns:inkscape="http://www.inkscape.org/namespaces/inkscape" xmlns:rdf="http://www.w3.org/1999/02/22-rdf-syntax-ns#" xmlns:sodipodi="http://sodipodi.sourceforge.net/DTD/sodipodi-0.dtd" xmlns:svg="http://www.w3.org/2000/svg" id="svg8" version="1.1" viewBox="0 0 16.933333 16.933334" preserveAspectRatio="xMidYMid meet" style="width: 200px; height: 200px; transform-origin: 50% 50%; transform: scaleX(1) scaleY(1) rotate(0deg);"><defs id="defs2"/><g id="layer1" fill="#B2FF9E" style="fill:#B2FF9E;stroke:none" stroke="none" class=""><path d="M 6.9980469,0 C 3.1440196,0 3.7795277e-7,3.1440189 0,6.9980469 c 0,3.8540271 3.1440188,7.0058591 6.9980469,7.0058591 3.8540271,0 7.0058591,-3.151832 7.0058591,-7.0058591 C 14.003906,3.1440189 10.852074,0 6.9980469,0 Z M 57.001953,0 c -3.854026,1.1338583e-6 -7.005859,3.1440197 -7.005859,6.9980469 0,3.8540261 3.151833,7.0058581 7.005859,7.0058591 C 60.855983,14.003907 64,10.852076 64,6.9980469 64,3.1440182 60.855983,-1.1338583e-6 57.001953,0 Z M 29.669922,0.00390625 c -2.450687,0.01489134 -4.893756,0.45591372 -6.91211,1.09570315 -4.670517,1.4811276 -6.395769,4.7849451 -6.716796,8.1425781 -0.112298,1.1744885 -0.06085,2.3543985 0.08984,3.4882815 -0.494206,0.340477 -1.026236,0.799152 -1.654297,1.414062 -1.184934,1.16017 -1.829555,2.000512 -2.11914,2.871094 -0.289587,0.870581 -0.07378,1.696318 0.140625,2.244141 0.214409,0.547822 0.393981,0.9261 0.435547,1.519531 0.04157,0.59343 -0.05701,1.442494 -0.634766,2.798828 -0.576913,1.354306 -1.117215,2.007613 -1.580078,2.390625 -0.462863,0.383011 -0.8864121,0.520108 -1.4472656,0.767578 -0.5608513,0.247472 -1.2945801,0.707287 -1.7050782,1.558594 -0.4104978,0.851306 -0.5683593,1.95524 -0.5683593,3.703125 0,1.747886 0.1578596,2.855725 0.5683593,3.707031 0.4104981,0.851307 1.1442243,1.30917 1.7050782,1.556641 0.5608535,0.247472 0.9844026,0.384571 1.4472656,0.767578 0.462863,0.38301 1.003164,1.038267 1.580078,2.392578 0.577757,1.356333 0.676331,2.20344 0.634766,2.796875 -0.04157,0.593427 -0.22114,0.973668 -0.435547,1.521484 -0.214409,0.547816 -0.430216,1.365752 -0.140625,2.236328 0.289587,0.87059 0.934205,1.718751 2.11914,2.878907 1.18494,1.160164 2.039699,1.785901 2.916016,2.058593 0.876317,0.272695 1.690464,0.04687 2.236328,-0.175781 0.545865,-0.22269 0.930057,-0.413124 1.527344,-0.464843 0.597288,-0.05171 1.447928,0.02948 2.820312,0.582031 1.348488,0.542914 2.027306,1.06717 2.421876,1.513672 0.394564,0.446494 0.539458,0.843926 0.773437,1.373047 0.233979,0.529114 0.632122,1.251442 1.425781,1.675781 0.79366,0.424342 1.813813,0.583984 3.400391,0.583984 1.586576,0 2.610638,-0.159645 3.404297,-0.583984 0.793659,-0.424339 1.189852,-1.146667 1.423828,-1.675781 0.23399,-0.529121 0.380827,-0.926553 0.77539,-1.373047 0.394566,-0.446502 1.065577,-0.970758 2.414063,-1.513672 1.372388,-0.552533 2.228882,-0.633749 2.826172,-0.582031 0.597286,0.0517 0.983431,0.242153 1.529297,0.464843 0.545866,0.22269 1.352198,0.448484 2.228515,0.175781 0.876314,-0.272692 1.738888,-0.898429 2.923829,-2.058593 1.184931,-1.160156 1.829553,-2.008317 2.11914,-2.878907 0.289588,-0.870576 0.07379,-1.688512 -0.140625,-2.236328 -0.214412,-0.547816 -0.401796,-0.928057 -0.443359,-1.521484 -0.04158,-0.593435 0.06478,-1.440542 0.642578,-2.796875 0.576915,-1.354311 1.117218,-2.009568 1.580078,-2.392578 0.462867,-0.383007 0.884457,-0.520108 1.445312,-0.767578 0.560854,-0.247472 1.294573,-0.705334 1.705079,-1.556641 0.41049,-0.851306 0.570312,-1.959145 0.570312,-3.707031 0,-1.747885 -0.159837,-2.851819 -0.570312,-3.703125 -0.410476,-0.851307 -1.144225,-1.311122 -1.705079,-1.558594 -0.560851,-0.24747 -0.982445,-0.384567 -1.445312,-0.767578 -0.46286,-0.383012 -1.003163,-1.036319 -1.580078,-2.390625 -0.577758,-1.356334 -0.684142,-2.205397 -0.642578,-2.798828 0.04158,-0.593431 0.228962,-0.971709 0.443359,-1.519531 0.214413,-0.547824 0.430179,-1.37356 0.140625,-2.244141 -0.289587,-0.870582 -0.934206,-1.710937 -2.11914,-2.871094 -1.471516,-1.440744 -2.49008,-2.093821 -3.550782,-2.185547 -0.289663,-0.02506 -0.549038,-0.0065 -0.785156,0.0098 0.150236,-1.845916 0.01587,-3.7638623 -0.898438,-5.390625 C 43.38111,4.9626004 41.709827,3.7553161 39.107422,3.5195312 37.592924,1.675764 35.690038,0.92521935 34,0.48632812 32.612397,0.13810892 31.140334,-0.00503687 29.669922,0.00390625 Z M 6.9980469,4.0019531 c 0.5522694,-0.00216 1.001753,0.4438247 1.0039062,0.9960938 V 6.0019531 H 8.9980469 C 9.550316,5.999792 9.9998001,6.4457774 10.001953,6.9980469 10.004126,7.5533698 9.5533695,8.0041267 8.9980469,8.0019531 H 8.0019531 V 8.9980469 C 8.0041264,9.5533695 7.5533695,10.004153 6.9980469,10.001953 6.4457778,9.9998005 5.9997931,9.5503167 6.0019531,8.9980469 V 8.0019531 H 4.9980469 C 4.4457774,7.9997999 3.9997931,7.5503163 4.0019531,6.9980469 4.0040946,6.4488256 4.448826,6.0040931 4.9980469,6.0019531 H 6.0019531 V 4.9980469 C 6.0040946,4.4488263 6.4488256,4.0040946 6.9980469,4.0019531 Z M 59.041016,4.9980469 c 0.244951,0.00975 0.477793,0.1091499 0.654296,0.2792969 0.399158,0.3849558 0.408648,1.0211017 0.02148,1.4179687 l -2.501953,2.5917969 c -0.396235,0.4108735 -1.055495,0.4073368 -1.447266,-0.00781 L 54.269531,7.6835938 c -0.37437,-0.4020403 -0.354309,-1.0308362 0.04492,-1.4082032 0.399647,-0.3782747 1.029853,-0.3625509 1.410156,0.035156 l 0.78125,0.828125 1.771485,-1.8320313 C 58.475742,5.0988573 58.753961,4.9864437 59.041016,4.9980469 Z M 35.111328,13.845703 c 0.936816,-0.04454 1.847315,0.01716 2.763672,0.201172 1.035092,0.229546 1.926943,0.657353 2.552734,1.337891 0.625784,0.680537 1.056637,1.637422 1.056641,3.203125 0.01247,1.071109 1.47269,1.375343 1.912109,0.398437 0,0 0.117019,-0.266929 0.289063,-0.720703 0.462678,0.252219 0.843614,0.649495 1.076172,1.148437 0.414572,0.889453 0.276947,1.935802 -0.353516,2.6875 -0.584474,0.696863 -1.486198,1.018551 -2.369141,0.859376 0.03024,-0.08354 0.06034,-0.167412 0.08789,-0.246094 0.184517,-0.522134 -0.09045,-1.094836 -0.613281,-1.277344 -0.519251,-0.179588 -1.086164,0.09341 -1.269531,0.611328 -0.536448,1.530785 -1.70347,4.149961 -3.757813,6.253906 C 35.05741,29.766264 33.573831,30 31.931641,30 c -1.620688,0 -3.08577,-0.282822 -4.582032,-1.720703 -3.184926,-3.060744 -4.111328,-7.470703 -4.111328,-7.470703 -0.106186,-0.542062 -0.631793,-0.895382 -1.173828,-0.789063 -0.545754,0.106041 -0.900253,0.636912 -0.789062,1.181641 0,0 0.136834,0.708428 0.509765,1.783203 -0.825836,0.09028 -1.647248,-0.231688 -2.193359,-0.882813 -0.63047,-0.751698 -0.770039,-1.798047 -0.355469,-2.6875 0.41457,-0.889444 1.30072,-1.453128 2.28125,-1.453124 0.550743,-0.0011 0.996972,-0.447304 0.998047,-0.998047 -0.01274,-0.09125 0.0053,-0.399796 -0.28125,-0.681641 0,0 -0.172943,-0.51347 -0.402344,-1.587891 1.176468,0.455483 2.544674,0.547761 3.923828,0.513672 2.841722,-0.07024 5.690222,-0.729887 6.435547,-0.929687 1.019795,-0.236321 1.983106,-0.387098 2.919922,-0.431641 z m 10.691406,0.105469 c 0.298205,0.02578 0.981069,0.300212 2.326172,1.617187 1.083149,1.060493 1.501206,1.73922 1.615235,2.082032 0.114028,0.342814 0.07091,0.433184 -0.103516,0.878906 -0.174463,0.445722 -0.506437,1.143651 -0.574219,2.111328 -0.06777,0.967677 0.132472,2.159006 0.796875,3.71875 0.665288,1.561754 1.391893,2.532782 2.140625,3.152344 0.748732,0.619561 1.478605,0.86536 1.91211,1.05664 0.433508,0.191278 0.534847,0.224367 0.714843,0.597657 C 54.810878,29.539301 55,30.38583 55,31.998047 c 0,1.612217 -0.189122,2.462649 -0.369141,2.835937 -0.180019,0.373289 -0.281347,0.406375 -0.714843,0.597657 -0.433505,0.191278 -1.163378,0.435125 -1.91211,1.054687 -0.748732,0.619562 -1.475337,1.590594 -2.140625,3.152344 -0.664403,1.559747 -0.864657,2.753027 -0.796875,3.720703 0.06777,0.967676 0.399767,1.665605 0.574219,2.111328 0.174463,0.445724 0.217544,0.536092 0.103516,0.878906 -0.114029,0.342804 -0.532086,1.013725 -1.615235,2.074219 -1.083144,1.060498 -1.770411,1.471564 -2.11914,1.580078 -0.348737,0.10851 -0.441782,0.06239 -0.886719,-0.11914 -0.444941,-0.181493 -1.143259,-0.521651 -2.111328,-0.605469 -0.96807,-0.08383 -2.165875,0.08999 -3.742188,0.724609 -1.551329,0.624586 -2.527729,1.320675 -3.166015,2.042969 -0.638291,0.722298 -0.910411,1.445102 -1.107422,1.890625 -0.197027,0.445531 -0.238488,0.556091 -0.539063,0.716797 C 34.156445,54.815002 33.434033,55 31.998047,55 30.562059,55 29.843539,54.815002 29.542969,54.654297 29.242398,54.493591 29.193105,54.383038 28.996094,53.9375 c -0.197013,-0.445523 -0.461322,-1.168327 -1.09961,-1.890625 -0.638287,-0.722294 -1.616639,-1.418383 -3.167968,-2.042969 -1.576312,-0.634632 -2.781933,-0.808428 -3.75,-0.724609 -0.968068,0.08382 -1.658578,0.423957 -2.103516,0.605469 -0.444938,0.181504 -0.536037,0.227662 -0.884766,0.11914 -0.348726,-0.108514 -1.035996,-0.51958 -2.11914,-1.580078 -1.083144,-1.060494 -1.503158,-1.731404 -1.617188,-2.074219 -0.114031,-0.342814 -0.07094,-0.433182 0.103516,-0.878906 0.174449,-0.445723 0.508393,-1.143652 0.576172,-2.111328 0.06778,-0.967676 -0.132471,-2.160956 -0.796875,-3.720703 -0.665284,-1.56175 -1.391894,-2.532782 -2.140625,-3.152344 -0.748732,-0.619562 -1.478602,-0.863407 -1.91211,-1.054687 C 9.6504787,35.240361 9.547186,35.207272 9.3671875,34.833984 9.187189,34.460696 8.9980469,33.610264 8.9980469,31.998047 c 0,-1.612217 0.189133,-2.458744 0.3691406,-2.832031 0.1799962,-0.373293 0.2832923,-0.406374 0.7167965,-0.597657 0.433508,-0.191278 1.163378,-0.437079 1.91211,-1.05664 0.748729,-0.619562 1.475341,-1.59059 2.140625,-3.152344 0.664404,-1.559744 0.864653,-2.751073 0.796875,-3.71875 -0.06778,-0.967677 -0.401723,-1.665605 -0.576172,-2.111328 -0.174449,-0.445722 -0.217547,-0.536096 -0.103516,-0.878906 0.114029,-0.342811 0.534044,-1.021539 1.617188,-2.082032 0.24856,-0.24336 0.473841,-0.449392 0.68164,-0.628906 0.302948,1.24312 0.68414,2.374921 1.039063,3.306641 -1.109442,2.03879 -0.491161,3.948668 0.464844,5.140625 0.309758,0.369324 0.670237,0.678339 1.066406,0.925781 -3.643828,6.098546 -2.518108,14.033517 2.859375,18.855469 2.323712,2.083649 5.13984,3.316096 8.044922,3.699219 1.287409,0.17673 2.488919,0.171407 3.710937,0.0293 3.000783,-0.348472 5.916985,-1.596554 8.306641,-3.757812 5.350004,-4.829084 6.464445,-12.744747 2.830078,-18.826172 0.396166,-0.247442 0.758597,-0.556457 1.068359,-0.925781 1.126836,-1.343512 1.37558,-3.225054 0.634766,-4.814453 -0.4671,-1.002153 -1.277852,-1.775555 -2.251953,-2.210938 0.188598,-0.637819 0.374891,-1.3594 0.53125,-2.128906 0.473235,-0.185356 0.721443,-0.300609 0.945312,-0.28125 z M 6.9980469,15.996094 C 6.4457778,15.998247 5.999792,16.447731 6.0019531,17 v 6.001953 c 0.0022,0.549198 0.4468952,0.993898 0.9960938,0.996094 h 2 c 0.5522691,0.0022 1.001753,-0.443824 1.0039061,-0.996094 0.0022,-0.555323 -0.4485835,-1.006079 -1.0039061,-1.003906 H 8.0019531 V 17 c 0.00217,-0.555323 -0.4485836,-1.006079 -1.0039062,-1.003906 z m 50.0039061,0 C 56.445867,15.992832 55.993913,16.443911 55.996094,17 v 4.998047 H 55 c -0.555318,-0.0022 -1.006076,0.448583 -1.003906,1.003906 0.0022,0.55227 0.451641,0.998255 1.003906,0.996094 h 2.001953 c 0.549199,-0.0022 0.993894,-0.446896 0.996094,-0.996094 V 17 c 0.0022,-0.552269 -0.443826,-1.001754 -0.996094,-1.003906 z M 36,31.126953 v 1.453125 L 32.582031,36 H 31.410156 L 28,32.587891 v -1.427735 c 1.253192,0.658088 2.687467,0.837891 3.931641,0.837891 1.264898,0 2.699014,-0.147583 4.068359,-0.871094 z M 26.789062,34.205078 29.587891,37 28.080078,38.501953 25.228516,34.933594 Z m 10.421876,0 1.560546,0.728516 -2.853515,3.568359 L 34.410156,37 Z m 3.421874,1.595703 c 1.097488,0.493475 2.211195,1.051224 3.212891,1.556641 -0.718307,1.58727 -1.767452,3.053149 -3.136719,4.289062 -1.668695,1.506176 -3.629231,2.504378 -5.683593,2.996094 l -0.66211,-3.578125 0.648438,-0.634765 0.279297,0.279296 c 0.423246,0.42175 1.119496,0.380658 1.490234,-0.08789 z m -17.271484,0.0039 3.855469,4.816406 c 0.370813,0.470014 1.068762,0.511156 1.492187,0.08789 l 0.300782,-0.300781 0.628906,0.630859 -0.666016,3.605469 c -2.04187,-0.487933 -3.989243,-1.477446 -5.652344,-2.96875 -1.384463,-1.241427 -2.445683,-2.716758 -3.169921,-4.316406 1.141991,-0.595425 1.992162,-0.986656 3.210937,-1.554687 z M 31.417969,38 h 1.164062 l 1.015625,1.015625 -1.591797,1.560547 -1.580078,-1.582031 z M 6.9980469,40 c -0.5491986,0.0022 -0.9938982,0.446894 -0.9960938,0.996094 v 6.001953 c 0.00214,0.549222 0.4468725,0.993951 0.9960938,0.996094 0.5522694,0.0022 1.001753,-0.443822 1.0039062,-0.996094 v -4.996094 h 0.9960938 c 0.5560898,0.0022 1.0071681,-0.449774 1.0039061,-1.005859 C 9.9998033,40.443829 9.550316,39.997838 8.9980469,40 Z M 55,40 c -0.552265,-0.0022 -1.001752,0.443825 -1.003906,0.996094 -0.0033,0.556082 0.44782,1.00804 1.003906,1.005859 h 0.996094 v 4.996094 c 0.0022,0.553039 0.452827,0.999336 1.005859,0.996094 0.549222,-0.0021 0.993951,-0.446872 0.996094,-0.996094 V 40.996094 C 57.995843,40.446898 57.551152,40.002196 57.001953,40 Z m -22.359375,2.746094 0.408203,2.21289 c -0.70009,0.05673 -1.401437,0.05477 -2.101562,-0.002 L 31.353516,42.75 c 0.373311,0.312718 0.915696,0.310853 1.287109,-0.0039 z m -25.6425781,7.25 C 3.1440181,49.996094 -1.1338583e-6,53.147924 0,57.001953 1.511811e-6,60.855983 3.1440199,64 6.9980469,64 c 3.8540261,0 7.0058581,-3.144017 7.0058591,-6.998047 10e-7,-3.854029 -3.151831,-7.005859 -7.0058591,-7.005859 z m 50.0039061,0 c -3.854026,0 -7.005863,3.151833 -7.005859,7.005859 0,3.854026 3.151833,6.998043 7.005859,6.998047 C 60.855983,64 63.999996,60.855983 64,57.001953 64,53.147924 60.855983,49.99609 57.001953,49.996094 Z M 5.5,54.498047 c 0.2661509,3.8e-5 0.5213308,0.106172 0.7089844,0.294922 L 7,55.585938 7.7949219,54.792969 c 0.3900438,-0.387818 1.020112,-0.387818 1.4101562,0 0.3878147,0.390039 0.3878147,1.020116 0,1.410156 l -0.7929687,0.794922 0.7929687,0.792969 c 0.3930221,0.390931 0.3930221,1.027029 0,1.417968 -0.3900442,0.387814 -1.0201124,0.387814 -1.4101562,0 L 7,58.414062 6.2089844,59.208984 c -0.3909381,0.393022 -1.0270311,0.393022 -1.4179688,0 -0.3930221,-0.390939 -0.3930221,-1.027037 0,-1.417968 L 5.5859375,56.998047 4.7910156,56.203125 c -0.387815,-0.39004 -0.387815,-1.020117 0,-1.410156 C 4.9786722,54.604219 5.2338495,54.498085 5.5,54.498047 Z M 55,55.996094 h 4.001953 c 0.553036,0.0022 0.999295,0.452824 0.996094,1.005859 -0.0021,0.549222 -0.446879,0.993992 -0.996094,0.996094 H 55 c -0.552265,0.0022 -1.001707,-0.443826 -1.003906,-0.996094 -0.0033,-0.556089 0.44782,-1.008059 1.003906,-1.005859 z" id="path872" style="opacity:1;fill:#B2FF9E;fill-opacity:1;stroke:none;stroke-width:2;stroke-linecap:round;stroke-linejoin:round;stroke-miterlimit:4;stroke-dasharray:none;stroke-dashoffset:0;stroke-opacity:1" transform="scale(0.26458334)" fill="#B2FF9E" stroke="none" class=""/></g></svg>